<svg width="16" height="16" viewBox="0 0 16 16" fill="none" xmlns="http://www.w3.org/2000/svg">
<path fill-rule="evenodd" clip-rule="evenodd" d="M5.49988 0.675724C6.4702 0.748794 7.1959 1.23184 7.61308 2.05625C7.88549 2.59458 8.03806 3.50228 8.11114 4.06741C8.18217 3.5251 8.32779 2.67211 8.58516 2.16351C8.98455 1.37426 9.6793 0.911821 10.6082 0.841868C11.9382 0.743078 12.9289 1.49868 13.029 2.67882C13.0902 3.40747 12.7092 4.0253 12.1377 4.48488H12.3939C13.1303 4.48488 13.7272 5.08184 13.7272 5.81822V8.93943H8.63631V4.57131L7.36371 4.57131V8.93943H2.2728V5.81822C2.2728 5.08184 2.86975 4.48488 3.60613 4.48488H3.90703C3.30743 4.00443 2.90719 3.35766 2.97125 2.59451C3.07583 1.3618 4.11064 0.572534 5.49988 0.675724ZM5.25119 1.78184C5.30232 1.78184 5.35519 1.78407 5.40922 1.78797C5.68176 1.80866 6.50931 1.87146 6.77464 3.14786C6.8217 3.37599 6.88213 3.81051 6.95418 4.4436C6.38942 4.33762 5.97515 4.24558 5.71775 4.16917C4.88746 3.92318 4.0746 3.33416 4.1298 2.68434C4.17803 2.11149 4.59288 1.78184 5.25119 1.78184ZM10.8463 1.90081C10.7973 1.90081 10.7467 1.90295 10.695 1.90669C10.4341 1.92649 9.64184 1.98661 9.38782 3.20857C9.34276 3.42698 9.28491 3.84296 9.21594 4.44905C9.75661 4.34759 10.1532 4.25948 10.3996 4.18632C11.1945 3.95083 11.9727 3.38693 11.9199 2.76482C11.8737 2.2164 11.4765 1.90081 10.8463 1.90081Z" fill="white"/>
<path d="M2.2728 10.2121H7.36371V14.6666H3.60613C2.86975 14.6666 2.2728 14.0697 2.2728 13.3333V10.2121Z" fill="white"/>
<path d="M8.6364 10.2121H13.7273V13.3333C13.7273 14.0697 13.1304 14.6666 12.394 14.6666H8.6364V10.2121Z" fill="white"/>
</svg>
