<svg width="16" height="21" viewBox="0 0 16 21" fill="none" xmlns="http://www.w3.org/2000/svg">
<path fill-rule="evenodd" clip-rule="evenodd" d="M8 20.4562C7.77422 20.4562 7.54755 20.3754 7.37422 20.2145C7.07378 19.9354 0 13.3803 0 8.03196C0 2.87863 4.14756 0.456207 8 0.456207C11.8524 0.456207 16 2.87863 16 8.03196C16 13.3803 8.92622 19.9354 8.62578 20.2145C8.45245 20.3754 8.22578 20.4562 8 20.4562ZM8 10.4562C6.3455 10.4562 5 9.11071 5 7.45621C5 5.80171 6.3455 4.45621 8 4.45621C9.6545 4.45621 11 5.80171 11 7.45621C11 9.11071 9.6545 10.4562 8 10.4562Z" fill="white"/>
</svg>
