<svg width="544" height="83" viewBox="0 0 544 83" fill="none" xmlns="http://www.w3.org/2000/svg">
<g clip-path="url(#clip0_3614_3893)">
<path d="M236.027 24.275C237.173 12.172 228.659 1.40573 217.009 0.214993C215.876 0.0973044 214.736 0.0402594 213.596 0.0441003H47.4705V82.1359H210.431C222.136 81.9953 231.629 72.271 231.629 60.1155C231.647 56.7101 230.885 53.3459 229.401 50.2823C227.917 47.2186 225.751 44.5373 223.071 42.4447C230.045 39.4265 235.235 32.6294 236.027 24.275ZM167.273 54.997H103.516V52.4778H167.27L167.273 54.997ZM167.273 28.834H103.516V26.3092H167.27L167.273 28.834Z" fill="white"/>
<path d="M288.035 17.7315H275.802V0.0440979H320.426V17.7315H308.551V82.1359H288.035V17.7315Z" fill="white"/>
<path d="M511.543 17.7315H499.285V0.0440979H543.994V17.7315H532.053V82.1359H511.537L511.543 17.7315Z" fill="white"/>
<path d="M44.9595 0.0468597H26.8965L23.7503 13.4977L23.7228 13.9332V26.447L21.2395 26.4525V13.9388L21.212 13.5033L18.063 0.0468597H0V3.29657L8.19271 37.8665L0 78.8751V82.1359H18.305L21.2257 67.0146V55.8184L23.7366 55.7771V66.9761L26.6573 82.1359H44.9595V78.8751L36.7668 37.8665L44.9595 3.29657V0.0468597Z" fill="white"/>
<path d="M271.091 0.024807L263.836 0L241.719 0.024807L232.055 78.7097V82.1166H251.757L252.794 69.1618H260.016L261.056 82.1166H280.755V78.7097L271.091 0.024807ZM257.827 55.5869H255.322V26.3395H257.827V55.5869Z" fill="white"/>
<path d="M414.418 0.0468597L381.76 55.9287L379.634 54.4623L396.237 25.9343V0.0468597H322.923V82.1359H405.634L438.592 26.0666L440.718 27.533L423.469 56.8328V82.1359H496.774V0.0468597H414.418Z" fill="white"/>
</g>
<defs>
<clipPath id="clip0_3614_3893">
<rect width="544" height="82.1386" fill="white"/>
</clipPath>
</defs>
</svg>
