<svg width="16" height="16" fill="none" xmlns="http://www.w3.org/2000/svg"><path fill-rule="evenodd" clip-rule="evenodd" d="M5.5.676c.97.073 1.696.556 2.113 1.38.272.539.425 1.446.498 2.011.071-.542.217-1.395.474-1.903.4-.79 1.094-1.252 2.023-1.322 1.33-.099 2.32.657 2.421 1.837.061.728-.32 1.346-.891 1.806h.256c.736 0 1.333.597 1.333 1.333V8.94h-5.09V4.571H7.363V8.94H2.273V5.82c0-.737.597-1.334 1.333-1.334h.301c-.6-.48-1-1.127-.936-1.89C3.076 1.362 4.111.573 5.5.675ZM5.25 1.782c.051 0 .104.002.158.006.273.02 1.1.083 1.366 1.36.047.228.107.663.18 1.296a13.712 13.712 0 0 1-1.237-.275c-.83-.246-1.643-.835-1.588-1.485.048-.573.463-.902 1.121-.902Zm5.595.119c-.049 0-.1.002-.151.006-.26.02-1.053.08-1.307 1.302a16.76 16.76 0 0 0-.172 1.24c.54-.101.937-.19 1.184-.263.794-.235 1.573-.8 1.52-1.421-.046-.549-.444-.864-1.074-.864Z" fill="#fff"/><path d="M2.273 10.212h5.09v4.455H3.607a1.333 1.333 0 0 1-1.333-1.334v-3.12ZM8.636 10.212h5.091v3.121c0 .737-.597 1.334-1.333 1.334H8.636v-4.455Z" fill="#fff"/></svg>