<svg width="16" height="20" fill="none" xmlns="http://www.w3.org/2000/svg"><path fill-rule="evenodd" clip-rule="evenodd" d="M8 20a.92.92 0 0 1-.626-.242C7.074 19.48 0 12.924 0 7.576 0 2.422 4.148 0 8 0c3.852 0 8 2.422 8 7.576 0 5.348-7.074 11.903-7.374 12.182A.92.92 0 0 1 8 20Zm0-10c-1.654 0-3-1.345-3-3 0-1.654 1.346-3 3-3 1.655 0 3 1.346 3 3 0 1.655-1.345 3-3 3Z" fill="url('#paint0_linear_3905_3059')"/><defs><linearGradient id="paint0_linear_3905_3059" x1="14.828" y1="20.511" x2="-1.955" y2="18.926" gradientUnits="userSpaceOnUse"><stop stop-color="#FF3495"/><stop offset="1" stop-color="#FF8DC0"/></linearGradient></defs></svg>