<svg width="544" height="83" fill="none" xmlns="http://www.w3.org/2000/svg"><g clip-path="url('#clip0_3614_3893')" fill="#fff"><path d="M236.027 24.275c1.146-12.103-7.368-22.87-19.018-24.06a32 32 0 0 0-3.413-.17H47.471v82.09h162.96c11.705-.14 21.198-9.864 21.198-22.02a22.287 22.287 0 0 0-2.228-9.833 22.25 22.25 0 0 0-6.33-7.837c6.974-3.019 12.164-9.816 12.956-18.17Zm-68.754 30.722h-63.757v-2.52h63.754l.003 2.52Zm0-26.163h-63.757v-2.525h63.754l.003 2.525ZM288.035 17.732h-12.233V.044h44.624v17.688h-11.875v64.404h-20.516V17.732ZM511.543 17.732h-12.258V.044h44.709v17.688h-11.941v64.404h-20.516l.006-64.404ZM44.96.047H26.895l-3.146 13.45-.027.436v12.514l-2.483.006V13.939l-.028-.436L18.063.047H0v3.25l8.193 34.57L0 78.875v3.26h18.305l2.92-15.12V55.818l2.512-.04v11.198l2.92 15.16H44.96v-3.26l-8.192-41.01 8.192-34.57V.047ZM271.091.025 263.836 0l-22.117.025-9.664 78.685v3.407h19.702l1.037-12.955h7.222l1.04 12.955h19.699V78.71L271.091.025Zm-13.264 55.562h-2.505V26.339h2.505v29.248ZM414.418.047 381.76 55.929l-2.126-1.467 16.603-28.528V.047h-73.314v82.089h82.711l32.958-56.07 2.126 1.467-17.249 29.3v25.303h73.305V.046h-82.356Z"/></g><defs><clipPath id="clip0_3614_3893"><path fill="#fff" d="M0 0h544v82.139H0z"/></clipPath></defs></svg>